<svg width="24" height="24" xmlns="http://www.w3.org/2000/svg" fill-rule="evenodd" clip-rule="evenodd"><path d="M2.5 11.059l-2.5 2.5 2.5 2.499 2.5-2.499-2.5-2.5zm0 1.414l1.086 1.086-1.086 1.085-1.086-1.085 1.086-1.086zm.352 6.151l-.923 1.703-1.906.35 1.335 1.403-.254 1.92 1.748-.836 1.747.836-.255-1.92 1.335-1.403-1.905-.35-.922-1.703zm0 1.68l.401.74.828.152-.58.61.111.835-.76-.364-.761.364.111-.835-.58-.61.828-.152.402-.74zm17.875-17.412l-1.066 1.971-2.205.406 1.544 1.624-.294 2.222 2.021-.967 2.023.967-.294-2.222 1.544-1.624-2.205-.406-1.068-1.971zm.001 1.89l.481.888.994.183-.697.731.134 1.002-.913-.435-.911.435.134-1.002-.697-.731.995-.183.48-.888zm-18.414-.821c-.46 0-.883.212-1.104.553-.669 1.033.412 2.38 1.74 2.38.58 0 1.093-.268 1.444-.755l3.212-4.379-.502-.366-2.931 3.97c-.449-.626-.908-1.403-1.859-1.403m.636 3.932c-.744 0-1.495-.293-2.059-.804-.592-.536-.895-1.263-.875-1.971.012-.402.128-.797.354-1.147.404-.623 1.149-1.01 1.944-1.01.677 0 1.31.265 1.832.757l2.745-3.718 2.114 1.543-3.802 5.183c-.541.752-1.342 1.167-2.253 1.167m14.443 12.42c-.776 0-1.359.387-1.6 1.06-.334.935.523 1.607 1.525 1.607.322 0 1.405-.088 1.813-1.232l1.671-4.697.561.697c.75.933 1.119 1.61 1.294 2.161.136-.196.235-.375.291-.531.179-.505-.145-.98-.7-1.702-.481-.624-1.063-1.379-.997-2.289l-.475-.184-1.931 5.478c-.963-.36-1.108-.368-1.452-.368m-.075 3.667c-.886 0-1.952-.392-2.41-1.355-.234-.489-.252-1.038-.056-1.588.465-1.309 1.873-1.985 3.379-1.621l1.943-5.515 2.263.871c-.246.779-.427.956.603 2.294.457.593.96 1.248.96 2.022 0 1.076-.951 1.962-2.264 3.28.083-1.724.229-2.021-.605-3.258l-1.058 2.974c-.499 1.398-1.75 1.896-2.755 1.896m-10.574-14.985l2.806 7.153-.599.109c-.717.129-1.338.58-1.66 1.206-.258.501-.286 1.044-.075 1.491.355.752 1.248 1.05 2.053.737.911-.357 1.94-1.508 1.377-2.949l-2.431-6.196 5.812-3.87 2.222 5.664-.489.172c-.721.255-1.994 1.147-1.475 2.467.398 1.015 1.386.909 1.908.705.927-.363 1.679-1.382 1.139-2.765l-3.411-8.694-7.177 4.77zm1.851 11.825c-1.004 0-1.858-.538-2.283-1.44-.345-.731-.312-1.596.089-2.375.374-.726 1.022-1.286 1.793-1.573l-2.675-6.823 8.881-5.903 3.863 9.849c.746 1.913-.321 3.518-1.705 4.06-.653.257-2.477.577-3.205-1.271-.686-1.753.615-3.073 1.599-3.572l-1.404-3.576-4.107 2.736 2.136 5.445c.739 1.89-.408 3.643-1.943 4.246-.336.131-.685.197-1.039.197"/></svg>